<?xml version="1.0" encoding="UTF-8" standalone="no"?>
<!-- Created with Inkscape (http://www.inkscape.org/) -->

<svg
   version="1.1"
   id="svg824"
   xml:space="preserve"
   width="2525.908"
   height="855.64099"
   viewBox="0 0 2525.9079 855.64099"
   sodipodi:docname="Horizontal Logo weiss.ai.svg"
   inkscape:version="1.1.2 (b8e25be8, 2022-02-05)"
   xmlns:inkscape="http://www.inkscape.org/namespaces/inkscape"
   xmlns:sodipodi="http://sodipodi.sourceforge.net/DTD/sodipodi-0.dtd"
   xmlns="http://www.w3.org/2000/svg"
   xmlns:svg="http://www.w3.org/2000/svg"><defs
     id="defs828"><clipPath
       clipPathUnits="userSpaceOnUse"
       id="clipPath838"><path
         d="M 0,641.731 H 1894.43 V 0 H 0 Z"
         id="path836" /></clipPath></defs><sodipodi:namedview
     id="namedview826"
     pagecolor="#ffffff"
     bordercolor="#666666"
     borderopacity="1.0"
     inkscape:pageshadow="2"
     inkscape:pageopacity="0.0"
     inkscape:pagecheckerboard="0"
     showgrid="false"
     inkscape:zoom="0.22"
     inkscape:cx="1168.1818"
     inkscape:cy="500"
     inkscape:window-width="1440"
     inkscape:window-height="796"
     inkscape:window-x="0"
     inkscape:window-y="25"
     inkscape:window-maximized="1"
     inkscape:current-layer="g830" /><g
     id="g830"
     inkscape:groupmode="layer"
     inkscape:label="Horizontal Logo"
     transform="matrix(1.3333333,0,0,-1.3333333,0,855.64133)"><g
       id="g1361"><g
         id="g840"
         transform="translate(1295.5602,293.70326)"><path
           d="m 0,0 c 10.65,-0.32 19.757,-6.266 24.504,-14.954 2.284,-4.135 3.593,-8.91 3.593,-14.006 0,-0.696 -0.029,-1.49 -0.126,-2.409 -0.348,-3.69 4.144,-6.88 5.277,-8.549 1.025,-1.51 11.945,-6.081 17.871,-17.269 22.763,0.004 43.524,0.008 53.621,0.008 C 104.643,-3.322 75.485,43.715 32.113,69.093 16.236,41.708 3.692,20.053 -6.183,2.991 -4.635,1.173 -2.399,0.076 0,0"
           style="fill:#f57b22;fill-opacity:1;fill-rule:nonzero;stroke:none"
           id="path842" /></g><g
         id="g844"
         transform="translate(1224.0834,312.1613)"><path
           d="m 0,0 c 3.647,1.99 6.321,3.174 11.946,4.608 4.219,1.086 11.988,2.423 22.221,0.321 12.002,-2.465 23.085,-9.274 30.729,-19.897 0.196,-0.272 0.407,-0.53 0.629,-0.775 C 80.916,10.928 97.071,38.922 103.79,50.559 57.101,77.402 1.786,75.671 -41.878,50.798 -28.881,28.192 -18.121,9.491 -9.232,-5.948 -6.916,-4.778 -4.586,-2.484 0,0"
           style="fill:#ed1740;fill-opacity:1;fill-rule:nonzero;stroke:none"
           id="path846" /></g><g
         id="g848"
         transform="matrix(1.0021289,0,0,1,1135.3169,246.4611)"><path
           d="m 0,0 c 0.85,9.565 6.893,20.008 15.873,25.284 4.831,2.855 10.567,4.526 16.93,4.526 4.176,0 7.741,3.035 8.382,7.211 2.311,15.107 17.32,25.939 33.04,22.208 2.242,-0.527 3.8,-0.251 5.364,0.536 C 65.988,83.309 52.739,106.247 46.821,116.498 0.229,89.485 -25.928,40.716 -26.22,-9.534 -16.691,-9.552 -7.765,-9.567 0.599,-9.58 0.04,-6.968 -0.332,-3.698 0,0"
           style="fill:#95248d;fill-opacity:1;fill-rule:nonzero;stroke:none"
           id="path850" /></g><g
         id="g852"
         transform="translate(1230.4975,207.343)"><path
           d="m 0,0 c -10.735,-8.34 -26.524,-5.764 -33.903,6.07 -2.493,4.01 -7.742,5.222 -11.709,2.73 -1.588,-1.017 -3.273,-1.853 -5.013,-2.549 -17.863,-7.268 -36.952,2.549 -42.869,19.145 -0.378,1.084 -0.815,2.503 -1.171,4.192 -11.407,-0.002 -20.908,-0.004 -26.791,-0.004 0.099,-53.855 29.255,-100.894 72.627,-126.271 C -20.651,-48.085 -2.973,-17.533 7.92,1.321 5.328,2.197 2.357,1.818 0,0"
           style="fill:#356fc0;fill-opacity:1;fill-rule:nonzero;stroke:none"
           id="path854" /></g><g
         id="g856"
         transform="translate(1286.9486,178.7551)"><path
           d="m 0,0 c -4.232,0.376 -8.66,2.437 -11.96,6.028 -1.573,1.686 -2.841,3.649 -3.745,5.904 -1.323,3.425 -4.721,5.569 -8.396,5.361 -1.183,-0.056 -1.879,0.041 -2.714,0 -2.716,-0.126 -6.726,0.528 -12.114,4.232 -2.06,1.476 -3.884,3.245 -5.388,5.332 -1.124,1.541 -2.668,2.599 -4.362,3.126 C -67.062,-1.876 -95.721,-51.54 -105.28,-68.098 -58.591,-94.94 -3.276,-93.209 40.388,-68.337 24.003,-39.839 11.174,-17.546 1.168,-0.173 0.786,-0.089 0.396,-0.029 0,0"
           style="fill:#01af4c;fill-opacity:1;fill-rule:nonzero;stroke:none"
           id="path858" /></g><g
         id="g860"
         transform="translate(1346.7445,236.5451)"><path
           d="m 0,0 c 0.622,-1.173 1.189,-2.419 1.685,-3.741 3.648,-11.208 1.476,-24.129 -7.379,-33.597 -2.145,-2.283 -4.637,-4.316 -7.421,-6.001 -2.897,-1.726 -4.484,-5.012 -4.052,-8.367 0,0 -0.056,-1.212 0.195,-2.465 1.448,-7.56 16.889,-19.256 15.524,-23.6 -1.796,-5.763 -34.697,-3.773 -43.148,6.809 -0.723,0.891 -5.569,2.98 -8.284,8.507 -1.165,2.404 -3.379,4.088 -5.952,4.587 15.736,-27.241 32.537,-56.327 39.421,-68.251 46.592,27.014 72.749,75.782 73.04,126.033 C 33.077,-0.049 15.323,-0.021 0,0"
           style="fill:#fbec02;fill-opacity:1;fill-rule:nonzero;stroke:none"
           id="path862" /></g><g
         id="g864"
         transform="translate(66.8627,10.3674)"
         style="fill:#ffffff"><path
           d="m 0,0 c 5.925,0 9.31,3.474 9.31,9.553 v 429.014 c 0,6.08 -3.385,10.422 -9.31,10.422 h -49.935 c -6.771,0 -10.156,-4.342 -10.156,-10.422 V 9.553 C -60.091,3.474 -56.706,0 -49.935,0 Z"
           style="fill:#ffffff;fill-opacity:1;fill-rule:nonzero;stroke:none"
           id="path866" /></g><g
         id="g868"
         transform="translate(83.79,585.2814)"><path
           d="M 0,0 C 0,25.185 -17.773,42.554 -41.472,42.554 -65.169,42.554 -83.79,25.185 -83.79,0 c 0,-24.316 18.621,-42.554 42.318,-42.554 C -17.773,-42.554 0,-24.316 0,0"
           style="fill:#ff662a;fill-opacity:1;fill-rule:nonzero;stroke:none"
           id="path870" /></g><g
         id="g872"
         transform="translate(282.433,292.6135)"
         style="fill:#ffffff"><path
           d="m 0,0 v 270.088 h 133.725 c 97.331,0 144.728,-45.159 144.728,-134.609 C 278.453,45.16 231.057,0 133.725,0 Z m -62.63,338.696 c -5.925,0 -9.31,-3.474 -9.31,-9.553 v -601.836 c 0,-6.079 3.385,-9.553 9.31,-9.553 h 53.32 c 5.925,0 9.31,3.474 9.31,9.553 v 204.086 h 141.342 c 132.879,0 209.897,75.555 209.897,204.086 0,126.793 -76.172,203.217 -209.897,203.217 z"
           style="fill:#ffffff;fill-opacity:1;fill-rule:nonzero;stroke:none"
           id="path874" /></g><g
         id="g876"
         transform="translate(780.9389,10.3674)"
         style="fill:#ffffff"><path
           d="m 0,0 c 6.771,0 10.156,3.474 10.156,9.553 v 368.223 c 22.852,9.553 56.706,17.369 91.407,17.369 25.391,0 52.475,-2.605 76.172,-6.079 6.771,-1.738 10.157,1.738 10.157,8.684 v 42.554 c 0,6.08 -2.539,10.422 -8.464,11.29 -30.469,4.343 -59.245,6.948 -87.175,6.948 -49.935,0 -102.409,-11.29 -144.728,-32.133 -5.078,-1.738 -6.771,-6.079 -6.771,-11.29 V 9.553 C -59.246,3.474 -55.86,0 -49.936,0 Z"
           style="fill:#ffffff;fill-opacity:1;fill-rule:nonzero;stroke:none"
           id="path878" /></g><g
         id="g880"
         transform="translate(1256.642,480.2194)"
         style="fill:#ffffff"><path
           d="m 0,0 c -132.634,0 -240.124,-107.492 -240.124,-240.093 0,-132.607 107.49,-240.126 240.124,-240.126 132.604,0 240.095,107.519 240.095,240.126 C 240.095,-107.492 132.604,0 0,0 m 0,-417.794 c -97.169,0 -175.911,78.772 -175.911,175.912 0,97.167 78.742,175.911 175.911,175.911 97.14,0 175.883,-78.744 175.883,-175.911 0,-97.14 -78.743,-175.912 -175.883,-175.912"
           style="fill:#ffffff;fill-opacity:1;fill-rule:evenodd;stroke:none"
           id="path882" /></g><g
         id="g884"
         transform="translate(1692.1508,519.28)"
         style="fill:#ffffff"><path
           d="m 0,0 h 34.7 c 17.773,0 30.469,-6.947 30.469,-24.317 0,-18.237 -11.002,-26.054 -30.469,-26.054 H 0 Z m -12.695,-144.163 c 7.617,0 12.695,4.343 12.695,13.027 v 50.37 h 22.852 l 38.086,-55.58 c 3.386,-5.211 8.464,-7.816 15.235,-7.816 h 11.848 c 9.31,0 12.695,6.079 6.771,15.632 l -36.394,50.37 c 23.699,5.211 39.78,21.711 39.78,53.844 0,38.212 -27.083,55.58 -62.63,55.58 h -55.86 c -8.463,0 -12.694,-5.21 -12.694,-13.027 v -149.373 c 0,-8.684 4.231,-13.027 12.694,-13.027 z m -101.563,85.976 c 0,95.53 63.477,145.031 141.342,145.031 76.173,0 139.649,-49.501 139.649,-145.031 0,-93.792 -63.476,-145.031 -139.649,-145.031 -77.864,0 -141.342,51.239 -141.342,145.031 m 316.538,0 c 0,113.768 -79.557,180.638 -176.043,180.638 -96.484,0 -176.042,-66.87 -176.042,-180.638 0,-114.635 79.558,-180.637 176.042,-180.637 96.486,0 176.043,66.003 176.043,180.637"
           style="fill:#ffffff;fill-opacity:1;fill-rule:nonzero;stroke:none"
           id="path886" /></g></g></g></svg>
